<svg xmlns="http://www.w3.org/2000/svg" class="svg-icon" style="width: 1em; height: 1em;vertical-align: middle;fill: currentColor;overflow: hidden;" viewBox="0 0 1024 1024" version="1.1">
<path d="M476 144.083v734.333c-16.153-10.798-44.438-31.782-90.53-71.775-51.958-45.083-99.188-90.495-116.902-108.209A80 80 0 0 0 212 675h-90c-22.056 0-40-17.944-40-40V399c0-22.056 17.944-40 40-40h90a79.995 79.995 0 0 0 56.568-23.432c1.888-1.887 4.048-4.052 6.457-6.466 22.595-22.644 69.611-69.763 116.865-113.335 41.864-38.602 68.244-59.978 84.11-71.684m2-90.393c-43.078 0-223.667 182.977-266 225.31h-90C55.726 279 2 332.726 2 399v236c0 66.274 53.726 120 120 120h90c48.667 48.666 222.922 211.801 266 211.801s78-34.922 78-78V131.69c0-43.078-34.922-78-78-78zM651.563 757.07c-17.592 0-33.713-11.692-38.566-29.481-5.814-21.313 6.749-43.303 28.062-49.118C723.5 655.979 781.078 580.5 781.078 494.92c0-87.132-58.884-162.955-143.195-184.387-21.411-5.443-34.355-27.211-28.912-48.622 5.442-21.411 27.22-34.352 48.621-28.912 57.186 14.537 108.893 48.191 145.597 94.763 18.377 23.318 32.688 49.285 42.535 77.176 10.188 28.859 15.354 59.134 15.354 89.982 0 60.477-19.535 117.661-56.493 165.371-35.78 46.189-86.378 80.056-142.471 95.359a40.058 40.058 0 0 1-10.551 1.42z" fill="#999999"/>
<path d="M722.555 870.173c-17.89 0-34.179-12.087-38.755-30.224-5.405-21.42 7.577-43.166 28.998-48.57C848.609 757.108 943.463 635.2 943.463 494.92S848.61 232.732 712.799 198.462c-21.42-5.405-34.402-27.151-28.997-48.571 5.405-21.419 27.145-34.402 48.571-28.998 41.287 10.418 80.35 27.545 116.101 50.906 35.128 22.953 66.137 51.307 92.165 84.275 26.294 33.306 46.77 70.399 60.857 110.249 14.576 41.232 21.967 84.498 21.967 128.596 0 44.099-7.391 87.364-21.968 128.597-14.088 39.851-34.563 76.943-60.857 110.249-26.028 32.969-57.037 61.323-92.166 84.276-35.751 23.36-74.813 40.487-116.102 50.905a40.018 40.018 0 0 1-9.815 1.227z" fill="#999999"/></svg>